<?xml version="1.0" encoding="utf-8"?>
<!-- Generator: Adobe Illustrator 25.1.0, SVG Export Plug-In . SVG Version: 6.00 Build 0)  -->
<svg version="1.1" id="Layer_1" xmlns="http://www.w3.org/2000/svg" xmlns:xlink="http://www.w3.org/1999/xlink" x="0px" y="0px"
	 viewBox="0 0 34 39" style="enable-background:new 0 0 34 39;" xml:space="preserve">
<style type="text/css">
	.st0{fill:#125D9A;}
	.st1{fill:#2A71B9;}
	.st2{fill:#414042;}
	.st3{clip-path:url(#SVGID_4_);fill:#4A484A;}
	.st4{fill:#F4F4F5;}
	.st5{clip-path:url(#SVGID_6_);fill:#4A484A;}
	.st6{clip-path:url(#SVGID_8_);fill:#4A484A;}
	.st7{fill:url(#SVGID_9_);}
	.st8{clip-path:url(#SVGID_11_);fill:#4A484A;}
	.st9{clip-path:url(#SVGID_13_);fill:#D2D2D1;}
	.st10{clip-path:url(#SVGID_17_);}
	.st11{clip-path:url(#SVGID_18_);}
	.st12{clip-path:url(#SVGID_19_);fill:#4A484A;}
	.st13{clip-path:url(#SVGID_19_);}
	.st14{clip-path:url(#SVGID_23_);fill:none;}
	.st15{clip-path:url(#SVGID_25_);fill:none;}
	.st16{clip-path:url(#SVGID_27_);fill:none;}
	.st17{clip-path:url(#SVGID_29_);fill:none;}
	.st18{clip-path:url(#SVGID_31_);fill:none;}
</style>
<g>
	<polygon class="st0" points="25.5,4.2 8.5,4.2 0,19.7 8.5,35.3 25.5,35.3 34,19.7 	"/>
	<polygon class="st1" points="25,5.1 9,5.1 1.1,19.7 9,34.3 25,34.3 32.9,19.7 	"/>
	<g>
		<path class="st2" d="M10.2,26.3c-2.8-1.3-4.3-3.8-4.1-7.7c0.4,1.2,1.1,2.3,2.1,3.2c-1.7-2.9-1.3-5.1,0.1-7.1
			c-0.6,3.3-0.1,6.5,4,9.7c-1.2,0.2-2.5-0.2-3.8-0.9c1.9,1.7,4,2.8,6.4,3c-0.7,0.8-1.8,1.3-3.1,1.5c3.1,0.7,6.1-0.6,8.9-3.5l-1.6,3
			c2.2-1,3.4-2.5,3.7-4.4c0.4-4-0.9-5.6-2.4-6.4c-1.6-0.9-3.2-0.4-3.2-0.4c-1.7,0.7-3.1,1.2-4.6,1.4c-2,0.2-3.7,0.1-3.9-0.9
			c-0.1-0.7,0-1.5,0.7-2.5c2.1-3.1,5.5-4.8,9.2-4.5c0.5-0.5,2.4-2.1,4.5,0.5c0,0,0.4,1,1.8,1c0,0,2.3,0.1,2.2,2.2
			c0,0-0.3,1.1,0.7,1.8c0,0,1.5,0.9,0.9,3c0,0-0.4,0.9-0.1,1.7c0,0,0.9,1.3-0.6,2.8c0,0-0.2,0.2-0.4,0.5c-1.1,2.6-2.8,4.9-6,6.6
			c-4.9,2.4-10.9,2.8-17.7-6.2C6.2,25.2,8.2,26.1,10.2,26.3z"/>
		<g>
			<defs>
				<path id="SVGID_1_" d="M10.2,26.3c-2.8-1.3-4.3-3.8-4.1-7.7c0.4,1.2,1.1,2.3,2.1,3.2c-1.7-2.9-1.3-5.1,0.1-7.1
					c-0.6,3.3-0.1,6.5,4,9.7c-1.2,0.2-2.5-0.2-3.8-0.9c1.9,1.7,4,2.8,6.4,3c-0.7,0.8-1.8,1.3-3.1,1.5c3.1,0.7,6.1-0.6,8.9-3.5
					l-1.6,3c2.2-1,3.4-2.5,3.7-4.4c0.4-4-0.9-5.6-2.4-6.4c-1.6-0.9-3.2-0.4-3.2-0.4c-1.7,0.7-3.1,1.2-4.6,1.4
					c-2,0.2-3.7,0.1-3.9-0.9c-0.1-0.7,0-1.5,0.7-2.5c2.1-3.1,5.5-4.8,9.2-4.5c0.5-0.5,2.4-2.1,4.5,0.5c0,0,0.4,1,1.8,1
					c0,0,2.3,0.1,2.2,2.2c0,0-0.3,1.1,0.7,1.8c0,0,1.5,0.9,0.9,3c0,0-0.4,0.9-0.1,1.7c0,0,0.9,1.3-0.6,2.8c0,0-0.2,0.2-0.4,0.5
					c-1.1,2.6-2.8,4.9-6,6.6c-4.9,2.4-10.9,2.8-17.7-6.2C6.2,25.2,8.2,26.1,10.2,26.3z"/>
			</defs>
			<clipPath id="SVGID_2_">
				<use xlink:href="#SVGID_1_"  style="overflow:visible;"/>
			</clipPath>
		</g>
		<g>
			<defs>
				<path id="SVGID_3_" d="M10.2,26.3c-2.8-1.3-4.3-3.8-4.1-7.7c0.4,1.2,1.1,2.3,2.1,3.2c-1.7-2.9-1.3-5.1,0.1-7.1
					c-0.6,3.3-0.1,6.5,4,9.7c-1.2,0.2-2.5-0.2-3.8-0.9c1.9,1.7,4,2.8,6.4,3c-0.7,0.8-1.8,1.3-3.1,1.5c3.1,0.7,6.1-0.6,8.9-3.5
					l-1.6,3c2.2-1,3.4-2.5,3.7-4.4c0.4-4-0.9-5.6-2.4-6.4c-1.6-0.9-3.2-0.4-3.2-0.4c-1.7,0.7-3.1,1.2-4.6,1.4
					c-2,0.2-3.7,0.1-3.9-0.9c-0.1-0.7,0-1.5,0.7-2.5c2.1-3.1,5.5-4.8,9.2-4.5c0.5-0.5,2.4-2.1,4.5,0.5c0,0,0.4,1,1.8,1
					c0,0,2.3,0.1,2.2,2.2c0,0-0.3,1.1,0.7,1.8c0,0,1.5,0.9,0.9,3c0,0-0.4,0.9-0.1,1.7c0,0,0.9,1.3-0.6,2.8c0,0-0.2,0.2-0.4,0.5
					c-1.1,2.6-2.8,4.9-6,6.6c-4.9,2.4-10.9,2.8-17.7-6.2C6.2,25.2,8.2,26.1,10.2,26.3z"/>
			</defs>
			<clipPath id="SVGID_4_">
				<use xlink:href="#SVGID_3_"  style="overflow:visible;"/>
			</clipPath>
			<path class="st3" d="M8.3,14.4c-0.2,0-2.5,7,4.2,10l0.2-0.5c0,0-4.6-3.4-4.3-9.4l-0.2-0.3L8.3,14.4z"/>
		</g>
		<ellipse class="st4" cx="14.7" cy="12.9" rx="0.4" ry="0.4"/>
		<g>
			<defs>
				<path id="SVGID_5_" d="M10.2,26.3c-2.8-1.3-4.3-3.8-4.1-7.7c0.4,1.2,1.1,2.3,2.1,3.2c-1.7-2.9-1.3-5.1,0.1-7.1
					c-0.6,3.3-0.1,6.5,4,9.7c-1.2,0.2-2.5-0.2-3.8-0.9c1.9,1.7,4,2.8,6.4,3c-0.7,0.8-1.8,1.3-3.1,1.5c3.1,0.7,6.1-0.6,8.9-3.5
					l-1.6,3c2.2-1,3.4-2.5,3.7-4.4c0.4-4-0.9-5.6-2.4-6.4c-1.6-0.9-3.2-0.4-3.2-0.4c-1.7,0.7-3.1,1.2-4.6,1.4
					c-2,0.2-3.7,0.1-3.9-0.9c-0.1-0.7,0-1.5,0.7-2.5c2.1-3.1,5.5-4.8,9.2-4.5c0.5-0.5,2.4-2.1,4.5,0.5c0,0,0.4,1,1.8,1
					c0,0,2.3,0.1,2.2,2.2c0,0-0.3,1.1,0.7,1.8c0,0,1.5,0.9,0.9,3c0,0-0.4,0.9-0.1,1.7c0,0,0.9,1.3-0.6,2.8c0,0-0.2,0.2-0.4,0.5
					c-1.1,2.6-2.8,4.9-6,6.6c-4.9,2.4-10.9,2.8-17.7-6.2C6.2,25.2,8.2,26.1,10.2,26.3z"/>
			</defs>
			<clipPath id="SVGID_6_">
				<use xlink:href="#SVGID_5_"  style="overflow:visible;"/>
			</clipPath>
			<path class="st5" d="M14.9,26.5c-3.3,0.1-6.1-2-6.4-3L14.9,26.5z"/>
		</g>
		<g>
			<defs>
				<path id="SVGID_7_" d="M10.2,26.3c-2.8-1.3-4.3-3.8-4.1-7.7c0.4,1.2,1.1,2.3,2.1,3.2c-1.7-2.9-1.3-5.1,0.1-7.1
					c-0.6,3.3-0.1,6.5,4,9.7c-1.2,0.2-2.5-0.2-3.8-0.9c1.9,1.7,4,2.8,6.4,3c-0.7,0.8-1.8,1.3-3.1,1.5c3.1,0.7,6.1-0.6,8.9-3.5
					l-1.6,3c2.2-1,3.4-2.5,3.7-4.4c0.4-4-0.9-5.6-2.4-6.4c-1.6-0.9-3.2-0.4-3.2-0.4c-1.7,0.7-3.1,1.2-4.6,1.4
					c-2,0.2-3.7,0.1-3.9-0.9c-0.1-0.7,0-1.5,0.7-2.5c2.1-3.1,5.5-4.8,9.2-4.5c0.5-0.5,2.4-2.1,4.5,0.5c0,0,0.4,1,1.8,1
					c0,0,2.3,0.1,2.2,2.2c0,0-0.3,1.1,0.7,1.8c0,0,1.5,0.9,0.9,3c0,0-0.4,0.9-0.1,1.7c0,0,0.9,1.3-0.6,2.8c0,0-0.2,0.2-0.4,0.5
					c-1.1,2.6-2.8,4.9-6,6.6c-4.9,2.4-10.9,2.8-17.7-6.2C6.2,25.2,8.2,26.1,10.2,26.3z"/>
			</defs>
			<clipPath id="SVGID_8_">
				<use xlink:href="#SVGID_7_"  style="overflow:visible;"/>
			</clipPath>
			<path class="st6" d="M8.8,16.6c0.3-3.1,12.8-11.5,18.7-1L24,8L8.4,8.7l0,7.5L8.8,16.6z"/>
		</g>
		<linearGradient id="SVGID_9_" gradientUnits="userSpaceOnUse" x1="35.9461" y1="25.8222" x2="17.1779" y2="8.1777">
			<stop  offset="0" style="stop-color:#000000"/>
			<stop  offset="1" style="stop-color:#414042"/>
		</linearGradient>
		<path class="st7" d="M18.4,9.6c0,0,2.8-2.5,4.9,0.5c0,0,0.3,0.9,1.8,1c0,0,2.4,0.3,2.2,2.4c0,0-0.4,1.1,0.7,1.8c0,0,1.5,0.9,0.8,3
			c0,0-0.4,0.8-0.1,1.7c0,0,0.9,1.3-0.7,2.8c0,0-0.3,0.2-0.4,0.6C27.7,23.2,30.7,10.3,18.4,9.6z"/>
		<g>
			<defs>
				<path id="SVGID_10_" d="M10.2,26.3c-2.8-1.3-4.3-3.8-4.1-7.7c0.4,1.2,1.1,2.3,2.1,3.2c-1.7-2.9-1.3-5.1,0.1-7.1
					c-0.6,3.3-0.1,6.5,4,9.7c-1.2,0.2-2.5-0.2-3.8-0.9c1.9,1.7,4,2.8,6.4,3c-0.7,0.8-1.8,1.3-3.1,1.5c3.1,0.7,6.1-0.6,8.9-3.5
					l-1.6,3c2.2-1,3.4-2.5,3.7-4.4c0.4-4-0.9-5.6-2.4-6.4c-1.6-0.9-3.2-0.4-3.2-0.4c-1.7,0.7-3.1,1.2-4.6,1.4
					c-2,0.2-3.7,0.1-3.9-0.9c-0.1-0.7,0-1.5,0.7-2.5c2.1-3.1,5.5-4.8,9.2-4.5c0.5-0.5,2.4-2.1,4.5,0.5c0,0,0.4,1,1.8,1
					c0,0,2.3,0.1,2.2,2.2c0,0-0.3,1.1,0.7,1.8c0,0,1.5,0.9,0.9,3c0,0-0.4,0.9-0.1,1.7c0,0,0.9,1.3-0.6,2.8c0,0-0.2,0.2-0.4,0.5
					c-1.1,2.6-2.8,4.9-6,6.6c-4.9,2.4-10.9,2.8-17.7-6.2C6.2,25.2,8.2,26.1,10.2,26.3z"/>
			</defs>
			<clipPath id="SVGID_11_">
				<use xlink:href="#SVGID_10_"  style="overflow:visible;"/>
			</clipPath>
			<path class="st8" d="M20.7,24.4c-2.8,3.7-5.7,4.6-8.9,3.5C15.1,27.7,18,26.6,20.7,24.4z"/>
		</g>
		<g>
			<defs>
				
					<ellipse id="SVGID_12_" transform="matrix(0.9607 -0.2777 0.2777 0.9607 -2.9961 4.5812)" cx="14.7" cy="12.9" rx="0.4" ry="0.4"/>
			</defs>
			<clipPath id="SVGID_13_">
				<use xlink:href="#SVGID_12_"  style="overflow:visible;"/>
			</clipPath>
			<path class="st9" d="M15.3,12.7c0,0-0.9-0.2-1.2,0.5c-0.3,0.8,0.1-0.9,0.1-0.9l0.8-0.2L15.3,12.7z"/>
		</g>
	</g>
	<g>
		<defs>
			<path id="SVGID_14_" d="M10.2,26.3c-2.8-1.3-4.3-3.8-4.1-7.7c0.4,1.2,1.1,2.3,2.1,3.2c-1.7-2.9-1.3-5.1,0.1-7.1
				c-0.6,3.3-0.1,6.5,4,9.7c-1.2,0.2-2.5-0.2-3.8-0.9c1.9,1.7,4,2.8,6.4,3c-0.7,0.8-1.8,1.3-3.1,1.5c3.1,0.7,6.1-0.6,8.9-3.5l-1.6,3
				c2.2-1,3.4-2.5,3.7-4.4c0.4-4-0.9-5.6-2.4-6.4c-1.6-0.9-3.2-0.4-3.2-0.4c-1.7,0.7-3.1,1.2-4.6,1.4c-2,0.2-3.7,0.1-3.9-0.9
				c-0.1-0.7,0-1.5,0.7-2.5c2.1-3.1,5.5-4.8,9.2-4.5c0.5-0.5,2.4-2.1,4.5,0.5c0,0,0.4,1,1.8,1c0,0,2.3,0.1,2.2,2.2
				c0,0-0.3,1.1,0.7,1.8c0,0,1.5,0.9,0.9,3c0,0-0.4,0.9-0.1,1.7c0,0,0.9,1.3-0.6,2.8c0,0-0.2,0.2-0.4,0.5c-1.1,2.6-2.8,4.9-6,6.6
				c-4.9,2.4-10.9,2.8-17.7-6.2C6.2,25.2,8.2,26.1,10.2,26.3z"/>
		</defs>
		<defs>
			<ellipse id="SVGID_15_" cx="14.7" cy="12.9" rx="0.4" ry="0.4"/>
		</defs>
		<defs>
			<path id="SVGID_16_" d="M18.4,9.6c0,0,2.8-2.5,4.9,0.5c0,0,0.3,0.9,1.8,1c0,0,2.4,0.3,2.2,2.4c0,0-0.4,1.1,0.7,1.8
				c0,0,1.5,0.9,0.8,3c0,0-0.4,0.8-0.1,1.7c0,0,0.9,1.3-0.7,2.8c0,0-0.3,0.2-0.4,0.6C27.7,23.2,30.7,10.3,18.4,9.6z"/>
		</defs>
		<clipPath id="SVGID_17_">
			<use xlink:href="#SVGID_14_"  style="overflow:visible;"/>
		</clipPath>
		<clipPath id="SVGID_18_" class="st10">
			<use xlink:href="#SVGID_15_"  style="overflow:visible;"/>
		</clipPath>
		<clipPath id="SVGID_19_" class="st11">
			<use xlink:href="#SVGID_16_"  style="overflow:visible;"/>
		</clipPath>
		<path class="st12" d="M4,23.5c1.9,2.1,4,2.8,6.2,2.8L4,23.5z"/>
		<g class="st13">
			<defs>
				<path id="SVGID_20_" d="M10.2,26.3c-2.8-1.3-4.3-3.8-4.1-7.7c0.4,1.2,1.1,2.3,2.1,3.2c-1.7-2.9-1.3-5.1,0.1-7.1
					c-0.6,3.3-0.1,6.5,4,9.7c-1.2,0.2-2.5-0.2-3.8-0.9c1.9,1.7,4,2.8,6.4,3c-0.7,0.8-1.8,1.3-3.1,1.5c3.1,0.7,6.1-0.6,8.9-3.5
					l-1.6,3c2.2-1,3.4-2.5,3.7-4.4c0.4-4-0.9-5.6-2.4-6.4c-1.6-0.9-3.2-0.4-3.2-0.4c-1.7,0.7-3.1,1.2-4.6,1.4
					c-2,0.2-3.7,0.1-3.9-0.9c-0.1-0.7,0-1.5,0.7-2.5c2.1-3.1,5.5-4.8,9.2-4.5c0.5-0.5,2.4-2.1,4.5,0.5c0,0,0.4,1,1.8,1
					c0,0,2.3,0.1,2.2,2.2c0,0-0.3,1.1,0.7,1.8c0,0,1.5,0.9,0.9,3c0,0-0.4,0.9-0.1,1.7c0,0,0.9,1.3-0.6,2.8c0,0-0.2,0.2-0.4,0.5
					c-1.1,2.6-2.8,4.9-6,6.6c-4.9,2.4-10.9,2.8-17.7-6.2C6.2,25.2,8.2,26.1,10.2,26.3z"/>
			</defs>
			<clipPath id="SVGID_21_">
				<use xlink:href="#SVGID_20_"  style="overflow:visible;"/>
			</clipPath>
		</g>
		<g class="st13">
			<defs>
				<path id="SVGID_22_" d="M10.2,26.3c-2.8-1.3-4.3-3.8-4.1-7.7c0.4,1.2,1.1,2.3,2.1,3.2c-1.7-2.9-1.3-5.1,0.1-7.1
					c-0.6,3.3-0.1,6.5,4,9.7c-1.2,0.2-2.5-0.2-3.8-0.9c1.9,1.7,4,2.8,6.4,3c-0.7,0.8-1.8,1.3-3.1,1.5c3.1,0.7,6.1-0.6,8.9-3.5
					l-1.6,3c2.2-1,3.4-2.5,3.7-4.4c0.4-4-0.9-5.6-2.4-6.4c-1.6-0.9-3.2-0.4-3.2-0.4c-1.7,0.7-3.1,1.2-4.6,1.4
					c-2,0.2-3.7,0.1-3.9-0.9c-0.1-0.7,0-1.5,0.7-2.5c2.1-3.1,5.5-4.8,9.2-4.5c0.5-0.5,2.4-2.1,4.5,0.5c0,0,0.4,1,1.8,1
					c0,0,2.3,0.1,2.2,2.2c0,0-0.3,1.1,0.7,1.8c0,0,1.5,0.9,0.9,3c0,0-0.4,0.9-0.1,1.7c0,0,0.9,1.3-0.6,2.8c0,0-0.2,0.2-0.4,0.5
					c-1.1,2.6-2.8,4.9-6,6.6c-4.9,2.4-10.9,2.8-17.7-6.2C6.2,25.2,8.2,26.1,10.2,26.3z"/>
			</defs>
			<clipPath id="SVGID_23_">
				<use xlink:href="#SVGID_22_"  style="overflow:visible;"/>
			</clipPath>
			<path class="st14" d="M8.3,14.4c-0.2,0-2.5,7,4.2,10l0.2-0.5c0,0-4.6-3.4-4.3-9.4l-0.2-0.3L8.3,14.4z"/>
		</g>
		<g class="st13">
			<defs>
				<path id="SVGID_24_" d="M10.2,26.3c-2.8-1.3-4.3-3.8-4.1-7.7c0.4,1.2,1.1,2.3,2.1,3.2c-1.7-2.9-1.3-5.1,0.1-7.1
					c-0.6,3.3-0.1,6.5,4,9.7c-1.2,0.2-2.5-0.2-3.8-0.9c1.9,1.7,4,2.8,6.4,3c-0.7,0.8-1.8,1.3-3.1,1.5c3.1,0.7,6.1-0.6,8.9-3.5
					l-1.6,3c2.2-1,3.4-2.5,3.7-4.4c0.4-4-0.9-5.6-2.4-6.4c-1.6-0.9-3.2-0.4-3.2-0.4c-1.7,0.7-3.1,1.2-4.6,1.4
					c-2,0.2-3.7,0.1-3.9-0.9c-0.1-0.7,0-1.5,0.7-2.5c2.1-3.1,5.5-4.8,9.2-4.5c0.5-0.5,2.4-2.1,4.5,0.5c0,0,0.4,1,1.8,1
					c0,0,2.3,0.1,2.2,2.2c0,0-0.3,1.1,0.7,1.8c0,0,1.5,0.9,0.9,3c0,0-0.4,0.9-0.1,1.7c0,0,0.9,1.3-0.6,2.8c0,0-0.2,0.2-0.4,0.5
					c-1.1,2.6-2.8,4.9-6,6.6c-4.9,2.4-10.9,2.8-17.7-6.2C6.2,25.2,8.2,26.1,10.2,26.3z"/>
			</defs>
			<clipPath id="SVGID_25_">
				<use xlink:href="#SVGID_24_"  style="overflow:visible;"/>
			</clipPath>
			<path class="st15" d="M14.9,26.5c-3.3,0.1-6.1-2-6.4-3L14.9,26.5z"/>
		</g>
		<g class="st13">
			<defs>
				<path id="SVGID_26_" d="M10.2,26.3c-2.8-1.3-4.3-3.8-4.1-7.7c0.4,1.2,1.1,2.3,2.1,3.2c-1.7-2.9-1.3-5.1,0.1-7.1
					c-0.6,3.3-0.1,6.5,4,9.7c-1.2,0.2-2.5-0.2-3.8-0.9c1.9,1.7,4,2.8,6.4,3c-0.7,0.8-1.8,1.3-3.1,1.5c3.1,0.7,6.1-0.6,8.9-3.5
					l-1.6,3c2.2-1,3.4-2.5,3.7-4.4c0.4-4-0.9-5.6-2.4-6.4c-1.6-0.9-3.2-0.4-3.2-0.4c-1.7,0.7-3.1,1.2-4.6,1.4
					c-2,0.2-3.7,0.1-3.9-0.9c-0.1-0.7,0-1.5,0.7-2.5c2.1-3.1,5.5-4.8,9.2-4.5c0.5-0.5,2.4-2.1,4.5,0.5c0,0,0.4,1,1.8,1
					c0,0,2.3,0.1,2.2,2.2c0,0-0.3,1.1,0.7,1.8c0,0,1.5,0.9,0.9,3c0,0-0.4,0.9-0.1,1.7c0,0,0.9,1.3-0.6,2.8c0,0-0.2,0.2-0.4,0.5
					c-1.1,2.6-2.8,4.9-6,6.6c-4.9,2.4-10.9,2.8-17.7-6.2C6.2,25.2,8.2,26.1,10.2,26.3z"/>
			</defs>
			<clipPath id="SVGID_27_">
				<use xlink:href="#SVGID_26_"  style="overflow:visible;"/>
			</clipPath>
			<path class="st16" d="M8.8,16.6c0.3-3.1,12.8-11.5,18.7-1L24,8L8.4,8.7l0,7.5L8.8,16.6z"/>
		</g>
		<g class="st13">
			<defs>
				<path id="SVGID_28_" d="M10.2,26.3c-2.8-1.3-4.3-3.8-4.1-7.7c0.4,1.2,1.1,2.3,2.1,3.2c-1.7-2.9-1.3-5.1,0.1-7.1
					c-0.6,3.3-0.1,6.5,4,9.7c-1.2,0.2-2.5-0.2-3.8-0.9c1.9,1.7,4,2.8,6.4,3c-0.7,0.8-1.8,1.3-3.1,1.5c3.1,0.7,6.1-0.6,8.9-3.5
					l-1.6,3c2.2-1,3.4-2.5,3.7-4.4c0.4-4-0.9-5.6-2.4-6.4c-1.6-0.9-3.2-0.4-3.2-0.4c-1.7,0.7-3.1,1.2-4.6,1.4
					c-2,0.2-3.7,0.1-3.9-0.9c-0.1-0.7,0-1.5,0.7-2.5c2.1-3.1,5.5-4.8,9.2-4.5c0.5-0.5,2.4-2.1,4.5,0.5c0,0,0.4,1,1.8,1
					c0,0,2.3,0.1,2.2,2.2c0,0-0.3,1.1,0.7,1.8c0,0,1.5,0.9,0.9,3c0,0-0.4,0.9-0.1,1.7c0,0,0.9,1.3-0.6,2.8c0,0-0.2,0.2-0.4,0.5
					c-1.1,2.6-2.8,4.9-6,6.6c-4.9,2.4-10.9,2.8-17.7-6.2C6.2,25.2,8.2,26.1,10.2,26.3z"/>
			</defs>
			<clipPath id="SVGID_29_">
				<use xlink:href="#SVGID_28_"  style="overflow:visible;"/>
			</clipPath>
			<path class="st17" d="M20.7,24.4c-2.8,3.7-5.7,4.6-8.9,3.5C15.1,27.7,18,26.6,20.7,24.4z"/>
		</g>
		<g class="st13">
			<defs>
				
					<ellipse id="SVGID_30_" transform="matrix(0.9607 -0.2777 0.2777 0.9607 -2.9961 4.5812)" cx="14.7" cy="12.9" rx="0.4" ry="0.4"/>
			</defs>
			<clipPath id="SVGID_31_">
				<use xlink:href="#SVGID_30_"  style="overflow:visible;"/>
			</clipPath>
			<path class="st18" d="M15.3,12.7c0,0-0.9-0.2-1.2,0.5c-0.3,0.8,0.1-0.9,0.1-0.9l0.8-0.2L15.3,12.7z"/>
		</g>
	</g>
</g>
</svg>
