<?xml version="1.0" encoding="UTF-8"?>
<!DOCTYPE svg PUBLIC "-//W3C//DTD SVG 1.1//EN" "http://www.w3.org/Graphics/SVG/1.1/DTD/svg11.dtd">
<svg xmlns="http://www.w3.org/2000/svg" version="1.1" width="1600px" height="1600px" style="shape-rendering:geometricPrecision; text-rendering:geometricPrecision; image-rendering:optimizeQuality; fill-rule:evenodd; clip-rule:evenodd" xmlns:xlink="http://www.w3.org/1999/xlink">
<g><path style="opacity:1" fill="#ff3d00" d="M 428.5,650.5 C 355.5,596.5 282.5,542.5 209.5,488.5C 225.087,457.634 243.421,428.634 264.5,401.5C 266.587,400.415 267.92,398.749 268.5,396.5C 270.458,393.208 272.791,390.208 275.5,387.5C 277.587,386.415 278.92,384.749 279.5,382.5C 281.587,381.415 282.92,379.749 283.5,377.5C 284.419,374.911 286.086,372.911 288.5,371.5C 290.587,370.415 291.92,368.749 292.5,366.5C 294.788,362.544 297.788,359.211 301.5,356.5C 304.243,354.761 306.243,352.427 307.5,349.5C 309.167,347.167 311.167,345.167 313.5,343.5C 317.234,340.769 320.234,337.436 322.5,333.5C 324.167,331.167 326.167,329.167 328.5,327.5C 334.108,323.561 339.108,318.894 343.5,313.5C 436.969,225.425 547.303,168.925 674.5,144C 871.011,110.285 1048.68,152.951 1207.5,272C 1223.45,284.61 1238.78,297.944 1253.5,312C 1191.04,375.46 1128.21,438.627 1065,501.5C 960.739,412.664 841.239,382.498 706.5,411C 575.029,445.983 482.362,525.816 428.5,650.5 Z"/></g>
<g><path style="opacity:0.949" fill="#ff8102" d="M 343.5,313.5 C 339.108,318.894 334.108,323.561 328.5,327.5C 332.892,322.106 337.892,317.439 343.5,313.5 Z"/></g>
<g><path style="opacity:0.839" fill="#ff8f02" d="M 322.5,333.5 C 320.234,337.436 317.234,340.769 313.5,343.5C 315.766,339.564 318.766,336.231 322.5,333.5 Z"/></g>
<g><path style="opacity:0.808" fill="#ff9603" d="M 307.5,349.5 C 306.243,352.427 304.243,354.761 301.5,356.5C 302.757,353.573 304.757,351.239 307.5,349.5 Z"/></g>
<g><path style="opacity:0.82" fill="#ff9903" d="M 292.5,366.5 C 291.92,368.749 290.587,370.415 288.5,371.5C 289.08,369.251 290.413,367.585 292.5,366.5 Z"/></g>
<g><path style="opacity:0.886" fill="#ff8e02" d="M 283.5,377.5 C 282.92,379.749 281.587,381.415 279.5,382.5C 280.08,380.251 281.413,378.585 283.5,377.5 Z"/></g>
<g><path style="opacity:0.847" fill="#ff9102" d="M 279.5,382.5 C 278.92,384.749 277.587,386.415 275.5,387.5C 276.08,385.251 277.413,383.585 279.5,382.5 Z"/></g>
<g><path style="opacity:0.533" fill="#ffa004" d="M 268.5,396.5 C 267.92,398.749 266.587,400.415 264.5,401.5C 265.08,399.251 266.413,397.585 268.5,396.5 Z"/></g>
<g><path style="opacity:0.996" fill="#fec007" d="M 209.5,488.5 C 282.5,542.5 355.5,596.5 428.5,650.5C 396.571,733.575 391.738,818.242 414,904.5C 416.672,914.682 419.839,924.682 423.5,934.5C 350.977,990.261 278.644,1046.26 206.5,1102.5C 209.118,1107.4 211.452,1112.4 213.5,1117.5C 159.379,1018.61 132.379,912.612 132.5,799.5C 132.625,689.334 158.292,585.667 209.5,488.5 Z"/></g>
<g><path style="opacity:0.999" fill="#1a76d1" d="M 1248.5,1292.5 C 1245.86,1292.05 1243.53,1290.88 1241.5,1289C 1174.59,1231.58 1107.25,1174.75 1039.5,1118.5C 1102.01,1069.97 1147.35,1008.64 1175.5,934.5C 1176.04,934.44 1176.38,934.107 1176.5,933.5C 1050.84,932.5 925.168,932.167 799.5,932.5C 799.5,843.5 799.5,754.5 799.5,665.5C 999.5,665.5 1199.5,665.5 1399.5,665.5C 1399.5,666.5 1399.5,667.5 1399.5,668.5C 1417.51,668.167 1435.51,668.5 1453.5,669.5C 1484.93,835.908 1458.77,992.575 1375,1139.5C 1341.36,1197.36 1299.2,1248.36 1248.5,1292.5 Z"/></g>
<g><path style="opacity:0.573" fill="#739382" d="M 799.5,932.5 C 925.168,932.167 1050.84,932.5 1176.5,933.5C 1176.38,934.107 1176.04,934.44 1175.5,934.5C 1050.17,933.833 924.833,933.167 799.5,932.5 Z"/></g>
<g><path style="opacity:1" fill="#4caf4f" d="M 423.5,934.5 C 471.95,1059.25 559.95,1142.08 687.5,1183C 815.34,1217.06 932.674,1195.56 1039.5,1118.5C 1107.25,1174.75 1174.59,1231.58 1241.5,1289C 1243.53,1290.88 1245.86,1292.05 1248.5,1292.5C 1248.5,1293.17 1248.17,1293.5 1247.5,1293.5C 1245.4,1294.41 1243.4,1295.58 1241.5,1297C 1230.27,1307.07 1218.94,1316.91 1207.5,1326.5C 1205.25,1327.08 1203.58,1328.41 1202.5,1330.5C 1194.8,1335.35 1187.47,1340.68 1180.5,1346.5C 1178.97,1346.43 1177.97,1347.09 1177.5,1348.5C 1171.98,1351.09 1166.98,1354.43 1162.5,1358.5C 1160.97,1358.43 1159.97,1359.09 1159.5,1360.5C 1157.97,1360.43 1156.97,1361.09 1156.5,1362.5C 1154.97,1362.43 1153.97,1363.09 1153.5,1364.5C 1151.33,1364.75 1149.66,1365.75 1148.5,1367.5C 1144.83,1369 1141.49,1371 1138.5,1373.5C 1136.33,1373.75 1134.66,1374.75 1133.5,1376.5C 1133.16,1377.34 1132.49,1377.67 1131.5,1377.5C 1129.33,1377.75 1127.66,1378.75 1126.5,1380.5C 1126.16,1381.34 1125.49,1381.67 1124.5,1381.5C 1121.67,1382.08 1119.34,1383.41 1117.5,1385.5C 1112.68,1387.07 1108.35,1389.41 1104.5,1392.5C 1100.82,1395.01 1096.82,1397.01 1092.5,1398.5C 1087.75,1399.71 1083.42,1401.71 1079.5,1404.5C 1075.6,1407.28 1071.26,1409.28 1066.5,1410.5C 1063.76,1410.71 1061.43,1411.71 1059.5,1413.5C 1057.45,1413.4 1055.78,1414.07 1054.5,1415.5C 1049.88,1418.27 1044.88,1420.27 1039.5,1421.5C 1037.45,1421.4 1035.78,1422.07 1034.5,1423.5C 1031.46,1423.73 1028.79,1424.73 1026.5,1426.5C 1021.78,1428.74 1016.78,1430.41 1011.5,1431.5C 1006.22,1432.59 1001.22,1434.26 996.5,1436.5C 989.817,1439.26 982.817,1441.26 975.5,1442.5C 972.848,1442.41 970.515,1443.08 968.5,1444.5C 966.302,1444.12 964.635,1444.79 963.5,1446.5C 795.699,1486.48 635.365,1466.65 482.5,1387C 473.605,1382.06 464.938,1376.89 456.5,1371.5C 456.027,1370.09 455.027,1369.43 453.5,1369.5C 436.295,1359.74 419.962,1348.74 404.5,1336.5C 404.027,1335.09 403.027,1334.43 401.5,1334.5C 400.415,1332.41 398.749,1331.08 396.5,1330.5C 396.027,1329.09 395.027,1328.43 393.5,1328.5C 391.091,1327.3 389.091,1325.63 387.5,1323.5C 386.415,1321.41 384.749,1320.08 382.5,1319.5C 381.415,1317.41 379.749,1316.08 377.5,1315.5C 376.089,1313.09 374.089,1311.42 371.5,1310.5C 369.761,1307.76 367.427,1305.76 364.5,1304.5C 363.089,1302.09 361.089,1300.42 358.5,1299.5C 357.5,1299.17 356.833,1298.5 356.5,1297.5C 354.1,1294.1 351.1,1291.43 347.5,1289.5C 345.833,1288.5 344.5,1287.17 343.5,1285.5C 337.444,1278.44 330.778,1272.11 323.5,1266.5C 320.899,1262.23 317.566,1258.56 313.5,1255.5C 311.167,1253.83 309.167,1251.83 307.5,1249.5C 306.243,1246.57 304.243,1244.24 301.5,1242.5C 300.5,1242.17 299.833,1241.5 299.5,1240.5C 298.581,1237.91 296.914,1235.91 294.5,1234.5C 293.5,1234.17 292.833,1233.5 292.5,1232.5C 291.527,1229.87 289.86,1227.87 287.5,1226.5C 286.527,1223.87 284.86,1221.87 282.5,1220.5C 282.262,1218.6 281.262,1217.26 279.5,1216.5C 278.833,1216.5 278.5,1216.17 278.5,1215.5C 277.864,1213.21 276.531,1211.54 274.5,1210.5C 274.573,1208.97 273.906,1207.97 272.5,1207.5C 271.833,1207.5 271.5,1207.17 271.5,1206.5C 271.262,1204.6 270.262,1203.26 268.5,1202.5C 267.92,1200.25 266.587,1198.58 264.5,1197.5C 264.573,1195.97 263.906,1194.97 262.5,1194.5C 262.262,1192.6 261.262,1191.26 259.5,1190.5C 259.573,1188.97 258.906,1187.97 257.5,1187.5C 257.262,1185.6 256.262,1184.26 254.5,1183.5C 254.573,1181.97 253.906,1180.97 252.5,1180.5C 252.573,1178.97 251.906,1177.97 250.5,1177.5C 248.938,1173.61 246.605,1170.27 243.5,1167.5C 243.573,1165.97 242.906,1164.97 241.5,1164.5C 240.11,1163.1 239.11,1161.43 238.5,1159.5C 238.573,1157.97 237.906,1156.97 236.5,1156.5C 236.573,1154.97 235.906,1153.97 234.5,1153.5C 234.25,1151.33 233.25,1149.66 231.5,1148.5C 231.573,1146.97 230.906,1145.97 229.5,1145.5C 229.25,1143.33 228.25,1141.66 226.5,1140.5C 225.662,1140.16 225.328,1139.49 225.5,1138.5C 225.25,1136.33 224.25,1134.66 222.5,1133.5C 221.662,1133.16 221.328,1132.49 221.5,1131.5C 221.25,1129.33 220.25,1127.66 218.5,1126.5C 217.662,1126.16 217.328,1125.49 217.5,1124.5C 216.921,1121.67 215.588,1119.34 213.5,1117.5C 211.452,1112.4 209.118,1107.4 206.5,1102.5C 278.644,1046.26 350.977,990.261 423.5,934.5 Z"/></g>
<g><path style="opacity:0.024" fill="#e9bf13" d="M 213.5,1117.5 C 215.588,1119.34 216.921,1121.67 217.5,1124.5C 215.412,1122.66 214.079,1120.33 213.5,1117.5 Z"/></g>
<g><path style="opacity:0.455" fill="#e7be14" d="M 218.5,1126.5 C 220.25,1127.66 221.25,1129.33 221.5,1131.5C 219.75,1130.34 218.75,1128.67 218.5,1126.5 Z"/></g>
<g><path style="opacity:0.016" fill="#eebf10" d="M 222.5,1133.5 C 224.25,1134.66 225.25,1136.33 225.5,1138.5C 223.75,1137.34 222.75,1135.67 222.5,1133.5 Z"/></g>
<g><path style="opacity:0.214" fill="#f3c00d" d="M 226.5,1140.5 C 228.25,1141.66 229.25,1143.33 229.5,1145.5C 227.75,1144.34 226.75,1142.67 226.5,1140.5 Z"/></g>
<g><path style="opacity:0.075" fill="#f3bf0d" d="M 229.5,1145.5 C 230.906,1145.97 231.573,1146.97 231.5,1148.5C 230.094,1148.03 229.427,1147.03 229.5,1145.5 Z"/></g>
<g><path style="opacity:0.22" fill="#f2bf0e" d="M 231.5,1148.5 C 233.25,1149.66 234.25,1151.33 234.5,1153.5C 232.75,1152.34 231.75,1150.67 231.5,1148.5 Z"/></g>
<g><path style="opacity:0.024" fill="#f1bf0e" d="M 234.5,1153.5 C 235.906,1153.97 236.573,1154.97 236.5,1156.5C 235.094,1156.03 234.427,1155.03 234.5,1153.5 Z"/></g>
<g><path style="opacity:0.051" fill="#eabf13" d="M 236.5,1156.5 C 237.906,1156.97 238.573,1157.97 238.5,1159.5C 237.094,1159.03 236.427,1158.03 236.5,1156.5 Z"/></g>
<g><path style="opacity:0.012" fill="#f5c00c" d="M 241.5,1164.5 C 242.906,1164.97 243.573,1165.97 243.5,1167.5C 242.094,1167.03 241.427,1166.03 241.5,1164.5 Z"/></g>
<g><path style="opacity:0.329" fill="#ebbf12" d="M 243.5,1167.5 C 246.605,1170.27 248.938,1173.61 250.5,1177.5C 247.395,1174.73 245.062,1171.39 243.5,1167.5 Z"/></g>
<g><path style="opacity:0.082" fill="#e6bf15" d="M 250.5,1177.5 C 251.906,1177.97 252.573,1178.97 252.5,1180.5C 251.094,1180.03 250.427,1179.03 250.5,1177.5 Z"/></g>
<g><path style="opacity:0.031" fill="#ecbf11" d="M 252.5,1180.5 C 253.906,1180.97 254.573,1181.97 254.5,1183.5C 253.094,1183.03 252.427,1182.03 252.5,1180.5 Z"/></g>
<g><path style="opacity:0.004" fill="#ebbf12" d="M 254.5,1183.5 C 256.262,1184.26 257.262,1185.6 257.5,1187.5C 255.738,1186.74 254.738,1185.4 254.5,1183.5 Z"/></g>
<g><path style="opacity:0.039" fill="#efbf0f" d="M 257.5,1187.5 C 258.906,1187.97 259.573,1188.97 259.5,1190.5C 258.094,1190.03 257.427,1189.03 257.5,1187.5 Z"/></g>
<g><path style="opacity:0.008" fill="#eebf10" d="M 259.5,1190.5 C 261.262,1191.26 262.262,1192.6 262.5,1194.5C 260.738,1193.74 259.738,1192.4 259.5,1190.5 Z"/></g>
<g><path style="opacity:0.047" fill="#f1bf0e" d="M 262.5,1194.5 C 263.906,1194.97 264.573,1195.97 264.5,1197.5C 263.094,1197.03 262.427,1196.03 262.5,1194.5 Z"/></g>
<g><path style="opacity:0.008" fill="#ebbf12" d="M 264.5,1197.5 C 266.587,1198.58 267.92,1200.25 268.5,1202.5C 266.413,1201.42 265.08,1199.75 264.5,1197.5 Z"/></g>
<g><path style="opacity:0.024" fill="#ebbf11" d="M 268.5,1202.5 C 270.262,1203.26 271.262,1204.6 271.5,1206.5C 269.738,1205.74 268.738,1204.4 268.5,1202.5 Z"/></g>
<g><path style="opacity:0.043" fill="#ebbf11" d="M 272.5,1207.5 C 273.906,1207.97 274.573,1208.97 274.5,1210.5C 273.094,1210.03 272.427,1209.03 272.5,1207.5 Z"/></g>
<g><path style="opacity:0.008" fill="#dbbe1c" d="M 274.5,1210.5 C 276.531,1211.54 277.864,1213.21 278.5,1215.5C 276.457,1214.42 275.124,1212.75 274.5,1210.5 Z"/></g>
<g><path style="opacity:0.024" fill="#e7be13" d="M 279.5,1216.5 C 281.262,1217.26 282.262,1218.6 282.5,1220.5C 280.738,1219.74 279.738,1218.4 279.5,1216.5 Z"/></g>
<g><path style="opacity:0.047" fill="#e0be1a" d="M 282.5,1220.5 C 284.86,1221.87 286.527,1223.87 287.5,1226.5C 285.11,1225.11 283.443,1223.11 282.5,1220.5 Z"/></g>
<g><path style="opacity:0.012" fill="#ddbe1b" d="M 287.5,1226.5 C 289.86,1227.87 291.527,1229.87 292.5,1232.5C 290.11,1231.11 288.443,1229.11 287.5,1226.5 Z"/></g>
<g><path style="opacity:0.004" fill="#e2be16" d="M 294.5,1234.5 C 296.914,1235.91 298.581,1237.91 299.5,1240.5C 297.086,1239.09 295.419,1237.09 294.5,1234.5 Z"/></g>
<g><path style="opacity:0.012" fill="#e6bf14" d="M 301.5,1242.5 C 304.243,1244.24 306.243,1246.57 307.5,1249.5C 304.757,1247.76 302.757,1245.43 301.5,1242.5 Z"/></g>
<g><path style="opacity:0.008" fill="#dfbe18" d="M 313.5,1255.5 C 317.566,1258.56 320.899,1262.23 323.5,1266.5C 319.434,1263.44 316.101,1259.77 313.5,1255.5 Z"/></g>
<g><path style="opacity:0.973" fill="#d2bd1f" d="M 323.5,1266.5 C 330.778,1272.11 337.444,1278.44 343.5,1285.5C 336.222,1279.89 329.556,1273.56 323.5,1266.5 Z"/></g>
<g><path style="opacity:0.996" fill="#cfbc21" d="M 347.5,1289.5 C 351.1,1291.43 354.1,1294.1 356.5,1297.5C 352.9,1295.57 349.9,1292.9 347.5,1289.5 Z"/></g>
<g><path style="opacity:0.741" fill="#d1bd1e" d="M 358.5,1299.5 C 361.089,1300.42 363.089,1302.09 364.5,1304.5C 361.911,1303.58 359.911,1301.91 358.5,1299.5 Z"/></g>
<g><path style="opacity:0.996" fill="#c1bb27" d="M 364.5,1304.5 C 367.427,1305.76 369.761,1307.76 371.5,1310.5C 368.573,1309.24 366.239,1307.24 364.5,1304.5 Z"/></g>
<g><path style="opacity:0.341" fill="#f4c00d" d="M 1247.5,1293.5 C 1234.91,1305.45 1221.58,1316.45 1207.5,1326.5C 1218.94,1316.91 1230.27,1307.07 1241.5,1297C 1243.4,1295.58 1245.4,1294.41 1247.5,1293.5 Z"/></g>
<g><path style="opacity:0.89" fill="#cbbc22" d="M 371.5,1310.5 C 374.089,1311.42 376.089,1313.09 377.5,1315.5C 374.911,1314.58 372.911,1312.91 371.5,1310.5 Z"/></g>
<g><path style="opacity:0.859" fill="#cbbc21" d="M 377.5,1315.5 C 379.749,1316.08 381.415,1317.41 382.5,1319.5C 380.251,1318.92 378.585,1317.59 377.5,1315.5 Z"/></g>
<g><path style="opacity:0.831" fill="#c5bb23" d="M 382.5,1319.5 C 384.749,1320.08 386.415,1321.41 387.5,1323.5C 385.251,1322.92 383.585,1321.59 382.5,1319.5 Z"/></g>
<g><path style="opacity:0.675" fill="#d2bc1c" d="M 393.5,1328.5 C 395.027,1328.43 396.027,1329.09 396.5,1330.5C 394.973,1330.57 393.973,1329.91 393.5,1328.5 Z"/></g>
<g><path style="opacity:0.306" fill="#f8c00a" d="M 1207.5,1326.5 C 1206.42,1328.59 1204.75,1329.92 1202.5,1330.5C 1203.58,1328.41 1205.25,1327.08 1207.5,1326.5 Z"/></g>
<g><path style="opacity:0.522" fill="#dabd1a" d="M 396.5,1330.5 C 398.749,1331.08 400.415,1332.41 401.5,1334.5C 399.251,1333.92 397.585,1332.59 396.5,1330.5 Z"/></g>
<g><path style="opacity:0.702" fill="#d3bc1b" d="M 401.5,1334.5 C 403.027,1334.43 404.027,1335.09 404.5,1336.5C 402.973,1336.57 401.973,1335.91 401.5,1334.5 Z"/></g>
<g><path style="opacity:0.222" fill="#f3c00d" d="M 1202.5,1330.5 C 1195.88,1336.81 1188.55,1342.14 1180.5,1346.5C 1187.47,1340.68 1194.8,1335.35 1202.5,1330.5 Z"/></g>
<g><path style="opacity:0.082" fill="#f6c00b" d="M 1180.5,1346.5 C 1180.03,1347.91 1179.03,1348.57 1177.5,1348.5C 1177.97,1347.09 1178.97,1346.43 1180.5,1346.5 Z"/></g>
<g><path style="opacity:0.161" fill="#f3c00d" d="M 1177.5,1348.5 C 1173.05,1352.61 1168.05,1355.94 1162.5,1358.5C 1166.98,1354.43 1171.98,1351.09 1177.5,1348.5 Z"/></g>
<g><path style="opacity:0.082" fill="#f7c00a" d="M 1162.5,1358.5 C 1162.03,1359.91 1161.03,1360.57 1159.5,1360.5C 1159.97,1359.09 1160.97,1358.43 1162.5,1358.5 Z"/></g>
<g><path style="opacity:0.051" fill="#f8c00a" d="M 1159.5,1360.5 C 1159.03,1361.91 1158.03,1362.57 1156.5,1362.5C 1156.97,1361.09 1157.97,1360.43 1159.5,1360.5 Z"/></g>
<g><path style="opacity:0.024" fill="#f9c00a" d="M 1156.5,1362.5 C 1156.03,1363.91 1155.03,1364.57 1153.5,1364.5C 1153.97,1363.09 1154.97,1362.43 1156.5,1362.5 Z"/></g>
<g><path style="opacity:0.22" fill="#eebf10" d="M 1153.5,1364.5 C 1152.34,1366.25 1150.67,1367.25 1148.5,1367.5C 1149.66,1365.75 1151.33,1364.75 1153.5,1364.5 Z"/></g>
<g><path style="opacity:0.478" fill="#d6bd1a" d="M 453.5,1369.5 C 455.027,1369.43 456.027,1370.09 456.5,1371.5C 454.973,1371.57 453.973,1370.91 453.5,1369.5 Z"/></g>
<g><path style="opacity:0.212" fill="#f4c00d" d="M 1148.5,1367.5 C 1145.84,1370.5 1142.51,1372.5 1138.5,1373.5C 1141.49,1371 1144.83,1369 1148.5,1367.5 Z"/></g>
<g><path style="opacity:0.222" fill="#f3c00d" d="M 1138.5,1373.5 C 1137.34,1375.25 1135.67,1376.25 1133.5,1376.5C 1134.66,1374.75 1136.33,1373.75 1138.5,1373.5 Z"/></g>
<g><path style="opacity:0.455" fill="#e7be14" d="M 1131.5,1377.5 C 1130.34,1379.25 1128.67,1380.25 1126.5,1380.5C 1127.66,1378.75 1129.33,1377.75 1131.5,1377.5 Z"/></g>
<g><path style="opacity:0.247" fill="#ebbf12" d="M 1124.5,1381.5 C 1122.66,1383.59 1120.33,1384.92 1117.5,1385.5C 1119.34,1383.41 1121.67,1382.08 1124.5,1381.5 Z"/></g>
<g><path style="opacity:0.227" fill="#eebf10" d="M 1117.5,1385.5 C 1113.65,1388.59 1109.32,1390.93 1104.5,1392.5C 1108.35,1389.41 1112.68,1387.07 1117.5,1385.5 Z"/></g>
<g><path style="opacity:0.322" fill="#eabf13" d="M 1092.5,1398.5 C 1088.58,1401.29 1084.25,1403.29 1079.5,1404.5C 1083.42,1401.71 1087.75,1399.71 1092.5,1398.5 Z"/></g>
<g><path style="opacity:0.49" fill="#e7be14" d="M 1066.5,1410.5 C 1064.57,1412.29 1062.24,1413.29 1059.5,1413.5C 1061.43,1411.71 1063.76,1410.71 1066.5,1410.5 Z"/></g>
<g><path style="opacity:0.28" fill="#e8bf13" d="M 1059.5,1413.5 C 1058.22,1414.93 1056.55,1415.6 1054.5,1415.5C 1055.78,1414.07 1057.45,1413.4 1059.5,1413.5 Z"/></g>
<g><path style="opacity:0.369" fill="#dabd19" d="M 1039.5,1421.5 C 1038.22,1422.93 1036.55,1423.6 1034.5,1423.5C 1035.78,1422.07 1037.45,1421.4 1039.5,1421.5 Z"/></g>
<g><path style="opacity:0.292" fill="#e7bf14" d="M 1034.5,1423.5 C 1032.21,1425.27 1029.54,1426.27 1026.5,1426.5C 1028.79,1424.73 1031.46,1423.73 1034.5,1423.5 Z"/></g>
<g><path style="opacity:0.137" fill="#e6be15" d="M 1011.5,1431.5 C 1006.92,1434.14 1001.92,1435.81 996.5,1436.5C 1001.22,1434.26 1006.22,1432.59 1011.5,1431.5 Z"/></g>
<g><path style="opacity:0.039" fill="#cfbc20" d="M 975.5,1442.5 C 973.485,1443.92 971.152,1444.59 968.5,1444.5C 970.515,1443.08 972.848,1442.41 975.5,1442.5 Z"/></g>
<g><path style="opacity:0.145" fill="#e3be17" d="M 968.5,1444.5 C 967.07,1445.54 965.403,1446.2 963.5,1446.5C 964.635,1444.79 966.302,1444.12 968.5,1444.5 Z"/></g>
</svg>
